<?xml version="1.0" encoding="UTF-8" standalone="no"?>
<!-- Created with Inkscape (http://www.inkscape.org/) -->

<svg
   width="83.307571mm"
   height="40.505943mm"
   viewBox="0 0 83.307571 40.505943"
   version="1.1"
   id="svg1"
   xml:space="preserve"
   xmlns:inkscape="http://www.inkscape.org/namespaces/inkscape"
   xmlns:sodipodi="http://sodipodi.sourceforge.net/DTD/sodipodi-0.dtd"
   xmlns="http://www.w3.org/2000/svg"
   xmlns:svg="http://www.w3.org/2000/svg"><sodipodi:namedview
     id="namedview1"
     pagecolor="#505050"
     bordercolor="#ffffff"
     borderopacity="1"
     inkscape:showpageshadow="0"
     inkscape:pageopacity="0"
     inkscape:pagecheckerboard="1"
     inkscape:deskcolor="#505050"
     inkscape:document-units="mm"><inkscape:page
       x="0"
       y="0"
       width="83.307571"
       height="40.505943"
       id="page3"
       margin="0"
       bleed="0" /></sodipodi:namedview><defs
     id="defs1" /><g
     id="layer-MC0"
     inkscape:groupmode="layer"
     inkscape:label="Capa 1"
     transform="matrix(0.26458333,0,0,0.26458334,-34.472308,84.318128)"><path
       id="path41"
       d="m 287.3112,-250.06428 c -0.21333,-0.88933 -0.528,-1.71466 -0.94533,-2.47866 -0.41334,-0.764 -0.92,-1.42 -1.524,-1.97734 -0.60134,-0.556 -1.31067,-0.96133 -2.12534,-1.21333 -0.81333,-0.252 -1.892,-0.38 -3.232,-0.38 -0.59466,0 -1.376,0.02 -2.34266,0.056 -1.35734,0.0573 -2.28,0.088 -2.76534,0.088 l -4.14,-0.10667 v 1.42534 c 0.87067,0.176 1.34267,0.28 1.41867,0.316 0.14533,0.0453 0.248,0.116 0.308,0.20933 0.04,0.0573 0.0693,0.16 0.0933,0.30133 0.0747,0.47734 0.13067,1.57334 0.16,3.28667 l 0.044,5.09733 v 1.86267 2.54933 c 0,3.53067 -0.0413,6.07734 -0.12533,7.64934 -0.24267,0.268 -0.51067,0.52666 -0.8,0.772 -0.15333,0.13066 -0.25733,0.22266 -0.32,0.284 v 0.84133 l 3.464,-0.10667 3.392,0.10667 c 1.53867,0 2.85333,-0.26133 3.944,-0.78267 1.08667,-0.52 2.10133,-1.37466 3.03333,-2.55866 0.93334,-1.184 1.66667,-2.65467 2.19867,-4.41067 0.53467,-1.76 0.80133,-3.75733 0.80133,-5.99733 0,-1.756 -0.18,-3.368 -0.53733,-4.83334 m -3.29733,9.776 c -0.21734,1.264 -0.524,2.356 -0.92667,3.268 -0.4,0.916 -0.816,1.60667 -1.25067,2.076 -0.43333,0.468 -0.94533,0.82667 -1.52933,1.07334 -0.77867,0.32666 -1.67333,0.492 -2.68533,0.492 -0.64934,0 -1.328,-0.084 -2.036,-0.248 -0.0773,-1.11467 -0.11334,-3.416 -0.11334,-6.908 v -2.85734 c 0.47334,-0.0667 1.06,-0.10133 1.77734,-0.10133 0.82,0 1.496,0.0653 2.02133,0.192 0.236,0.0613 0.40133,0.208 0.492,0.44 0.12267,0.31867 0.18,1.15467 0.172,2.516 h 0.98267 l -0.0453,-3.85067 0.0453,-3.868 h -0.92667 c -0.016,1.04267 -0.068,1.788 -0.16,2.23334 -0.0373,0.176 -0.0947,0.29866 -0.16667,0.36933 -0.0707,0.0693 -0.31466,0.11067 -0.72533,0.12 -1.08933,0.0507 -1.72133,0.0733 -1.89867,0.0733 -0.544,0 -1.06666,-0.0307 -1.568,-0.0867 v -0.0853 l 0.0467,-5.83733 c 0.005,-0.98267 0.028,-1.884 0.0667,-2.708 0.708,-0.152 1.35866,-0.228 1.94266,-0.228 1.56267,0 2.724,0.212 3.49067,0.63467 0.764,0.41866 1.40267,1.09866 1.91067,2.03866 0.50533,0.93734 0.86666,2.03067 1.084,3.27867 0.216,1.248 0.32533,2.53867 0.32533,3.87733 0,1.464 -0.10933,2.83067 -0.32533,4.096"
       style="fill:#ffffff;fill-opacity:1;fill-rule:nonzero;stroke:none;stroke-width:1.33333" /><path
       id="path42"
       d="m 270.1472,-287.16641 v -1.45866 l 3.71467,0.10533 1.54133,-0.036 1.544,-0.0533 0.42133,-0.016 v 1.45866 c -0.82266,0 -1.34533,0.112 -1.56533,0.33334 -0.11467,0.10533 -0.188,0.312 -0.228,0.616 -0.108,0.72533 -0.16,2.32533 -0.16,4.8 v 4.08 l 0.0107,2.05466 c 0,2.144 0.016,3.46934 0.0453,3.97467 0.0693,1.09867 0.248,1.98533 0.53733,2.66133 0.28934,0.67467 0.732,1.21867 1.33067,1.636 0.59733,0.41467 1.36,0.624 2.28133,0.624 1.05734,0 1.90134,-0.28 2.53067,-0.836 0.62933,-0.556 1.07733,-1.28133 1.344,-2.17066 0.26533,-0.88934 0.39867,-2.584 0.39867,-5.08 v -3.58667 c 0,-3.09467 -0.004,-4.98 -0.0107,-5.66 -0.024,-1.47867 -0.0787,-2.36933 -0.16267,-2.67467 -0.0507,-0.18533 -0.14133,-0.328 -0.26133,-0.42133 -0.25067,-0.19867 -0.79867,-0.31467 -1.64533,-0.35067 v -1.45866 c 1.37866,0.0813 2.196,0.12266 2.45733,0.12266 0.0693,0 0.16933,-0.007 0.308,-0.0173 l 2.53867,-0.10533 v 1.45866 c -0.712,0 -1.156,0.088 -1.33734,0.26267 -0.0947,0.0933 -0.16533,0.272 -0.22533,0.53467 -0.0547,0.26533 -0.10933,1.452 -0.16533,3.56266 -0.0507,2.10934 -0.08,3.77467 -0.08,4.99467 v 4.12933 c 0,1.056 -0.048,2.14534 -0.14667,3.26934 -0.0987,1.124 -0.29867,2.088 -0.6,2.884 -0.30267,0.79733 -0.72533,1.51733 -1.27733,2.16133 -0.54667,0.64533 -1.19734,1.13333 -1.95067,1.45867 -0.756,0.328 -1.62667,0.49333 -2.616,0.49333 -1.16,0 -2.24133,-0.24 -3.248,-0.72267 -0.73067,-0.352 -1.32933,-0.82266 -1.79333,-1.41466 -0.46534,-0.59067 -0.82,-1.252 -1.06134,-1.98534 -0.244,-0.732 -0.392,-1.44 -0.44666,-2.11866 -0.0373,-0.42 -0.056,-1.55734 -0.056,-3.412 l 0.009,-3.37334 v -4.46533 c 0,-1.64133 -0.0213,-3.12 -0.068,-4.43067 -0.0213,-0.51733 -0.068,-0.88933 -0.13733,-1.12533 -0.0373,-0.128 -0.13334,-0.28 -0.28534,-0.456 z"
       style="fill:#ffffff;fill-opacity:1;fill-rule:nonzero;stroke:none;stroke-width:1.33333" /><path
       id="path43"
       d="m 288.62493,-265.52588 c 0.9,-0.072 1.41467,-0.13333 1.54133,-0.19466 0.0867,-0.044 0.156,-0.124 0.21334,-0.22667 0.056,-0.10533 0.10533,-0.324 0.14266,-0.652 0.0453,-0.444 0.0987,-1.52133 0.16,-3.23467 0.0307,-0.97066 0.0453,-2.23733 0.0453,-3.796 v -5.64266 l -0.0453,-5.116 c -0.008,-0.85734 -0.0293,-1.41334 -0.0707,-1.67067 -0.0373,-0.25867 -0.0907,-0.44933 -0.164,-0.57333 -0.072,-0.12134 -0.192,-0.21734 -0.35867,-0.288 -0.168,-0.0707 -0.65733,-0.14534 -1.464,-0.23067 v -1.47333 c 0.968,0.0707 1.67867,0.104 2.13867,0.104 l 1.656,-0.0533 1.052,-0.0507 c 1.56933,3.15066 3.46666,6.78533 5.70133,10.89866 1.60533,2.96667 2.93867,5.284 4,6.96 v -4.05866 c 0,-6.30667 -0.0467,-10.01734 -0.13733,-11.12934 -0.0307,-0.43333 -0.1,-0.71466 -0.20667,-0.844 -0.176,-0.20933 -0.76933,-0.328 -1.78133,-0.35333 v -1.47333 c 0.928,0.0707 1.78133,0.104 2.556,0.104 0.75733,0 1.728,-0.0333 2.91866,-0.104 v 1.47333 c -0.932,0.0373 -1.48266,0.144 -1.66,0.31867 -0.0613,0.0573 -0.10266,0.14666 -0.124,0.26533 -0.11466,0.584 -0.19066,1.924 -0.22533,4.01333 -0.032,2.096 -0.0493,3.63867 -0.0493,4.63334 0,7.79466 0.048,12.524 0.148,14.18933 l -0.148,0.156 c -0.64134,-0.164 -1.29067,-0.316 -1.95467,-0.45467 -2.46133,-4.232 -5.94933,-10.58533 -10.468,-19.05866 v 8.75466 c 0,1.81867 0.0253,3.70934 0.0693,5.67734 0.0293,1.36133 0.0747,2.18666 0.136,2.48133 0.0307,0.14133 0.0813,0.25333 0.156,0.34133 0.0707,0.088 0.19734,0.152 0.38134,0.184 0.49466,0.0933 0.85733,0.14134 1.08666,0.14134 0.0453,0 0.12,-0.005 0.22667,-0.0173 v 1.424 c -1.444,-0.0213 -2.268,-0.0347 -2.468,-0.0347 -0.73733,0 -1.74,0.0347 -3.004,0.10666 z"
       style="fill:#ffffff;fill-opacity:1;fill-rule:nonzero;stroke:none;stroke-width:1.33333" /><path
       id="path44"
       d="m 315.582,-288.62615 v 1.54667 c -0.768,0.0347 -1.228,0.0787 -1.37067,0.132 -0.144,0.0533 -0.24933,0.11867 -0.308,0.19467 -0.0627,0.076 -0.10533,0.17333 -0.128,0.28933 -0.0533,0.2 -0.0907,0.58133 -0.11333,1.14267 -0.016,0.30533 -0.0267,0.88 -0.0347,1.724 -0.0307,2.88266 -0.0467,4.43333 -0.0467,4.656 v 7.08533 l 0.036,3.22 c 0,1.20533 0.04,1.99067 0.11333,2.35467 0.0307,0.16266 0.0827,0.28933 0.15467,0.37733 0.072,0.088 0.188,0.15733 0.34133,0.21067 0.15733,0.0533 0.608,0.0907 1.356,0.11466 v 1.54667 c -1.24133,-0.068 -2.56667,-0.10667 -3.97733,-0.10667 -1.22534,0 -2.32,0.0387 -3.28134,0.10667 v -1.54667 c 0.79467,-0.0467 1.252,-0.0867 1.37334,-0.124 0.16,-0.0453 0.26933,-0.11066 0.32533,-0.19333 0.0573,-0.0813 0.0933,-0.176 0.10933,-0.28133 0.0227,-0.14134 0.0533,-0.692 0.0907,-1.65067 0.06,-1.40667 0.092,-2.708 0.092,-3.904 v -7.35067 c 0,-2.32933 -0.009,-3.828 -0.0227,-4.49733 -0.0387,-1.49067 -0.0867,-2.42133 -0.13733,-2.79467 -0.0227,-0.15466 -0.0587,-0.27066 -0.108,-0.35333 -0.0507,-0.0813 -0.14133,-0.14933 -0.276,-0.20133 -0.132,-0.0533 -0.616,-0.104 -1.44667,-0.15067 v -1.54667 c 0.96134,0.072 2.06267,0.10667 3.30267,0.10667 1.39467,0 2.71467,-0.0347 3.956,-0.10667"
       style="fill:#ffffff;fill-opacity:1;fill-rule:nonzero;stroke:none;stroke-width:1.33333" /><path
       id="path45"
       d="m 324.81387,-263.90801 c -0.64533,-2.46133 -1.268,-4.80133 -1.86133,-7.01466 l -1.624,-5.95867 c -1.272,-4.67733 -2.05334,-7.46267 -2.34934,-8.36133 -0.292,-0.896 -0.51466,-1.40934 -0.66666,-1.53867 -0.22934,-0.18667 -0.7,-0.292 -1.41467,-0.31333 v -1.532 c 1.82667,0.0813 2.93867,0.124 3.33467,0.124 l 4.10133,-0.124 v 1.532 c -0.63867,0.012 -1.104,0.068 -1.39333,0.17466 -0.168,0.0573 -0.284,0.14267 -0.34934,0.256 -0.0653,0.10934 -0.0947,0.25334 -0.0947,0.42934 0,0.352 0.25066,1.464 0.752,3.34 0.28933,1.07866 0.44533,1.66133 0.46266,1.752 0.02,0.084 0.044,0.19333 0.0747,0.32266 l 2.89067,10.84667 2.536,-9.67067 c 0.0613,-0.22133 0.332,-1.328 0.812,-3.32 0.34266,-1.40933 0.55333,-2.34933 0.62933,-2.832 0.0147,-0.14 0.0213,-0.28133 0.0213,-0.42 0,-0.20133 -0.02,-0.34933 -0.0613,-0.448 -0.0427,-0.10133 -0.0987,-0.176 -0.164,-0.22133 -0.0547,-0.0347 -0.19467,-0.0653 -0.41333,-0.088 -0.496,-0.0707 -0.91334,-0.10933 -1.25467,-0.12133 v -1.532 l 2.89867,0.10667 2.46933,-0.10667 v 1.532 c -0.74,0.104 -1.168,0.22533 -1.29333,0.36533 -0.20267,0.24933 -0.632,1.58 -1.28934,3.99333 l -0.81066,2.916 -1.544,5.66267 c -1.30934,4.82667 -2.19734,8.24533 -2.66,10.24933 z"
       style="fill:#ffffff;fill-opacity:1;fill-rule:nonzero;stroke:none;stroke-width:1.33333" /><path
       id="path46"
       d="m 335.9336,-264.03175 v -0.94933 c 0.45733,-0.32933 0.82933,-0.668 1.11867,-1.01867 0.044,-0.49466 0.0827,-1.28933 0.116,-2.392 0.06,-2.01466 0.0893,-3.48 0.0893,-4.396 v -7.91066 c 0,-0.30267 -0.0107,-1.44534 -0.032,-3.42934 -0.024,-1.32133 -0.0773,-2.13066 -0.16,-2.424 -0.04,-0.11733 -0.0987,-0.20666 -0.172,-0.26266 -0.20667,-0.14134 -0.75467,-0.24667 -1.648,-0.316 v -1.496 l 2.652,0.0893 c 0.52667,0.0107 1.028,0.0173 1.508,0.0173 1.04667,0 2.20667,-0.0173 3.48667,-0.0547 l 2.31866,-0.0867 c 0.276,0 0.832,0.0227 1.66934,0.0707 0.0787,0 0.2,0.0333 0.376,0.10533 l 0.0813,0.228 -0.216,2.532 c -0.009,0.17733 -0.048,1.01867 -0.116,2.532 h -0.892 c -0.0147,-1.38533 -0.0467,-2.23333 -0.1,-2.54933 -0.032,-0.164 -0.0787,-0.28267 -0.13867,-0.352 -0.1,-0.10534 -0.40533,-0.2 -0.916,-0.28267 -0.75333,-0.12667 -1.492,-0.192 -2.216,-0.192 -0.67733,0 -1.37333,0.04 -2.08,0.12133 -0.10533,1.32667 -0.15866,3.00667 -0.15866,5.04667 v 3.60533 c 0.51733,0.0587 1.06,0.0867 1.62266,0.0867 0.17467,0 0.80667,-0.0227 1.896,-0.0707 0.41334,-0.0107 0.652,-0.0533 0.72534,-0.12133 0.0733,-0.0707 0.128,-0.19333 0.164,-0.36933 0.0933,-0.44667 0.148,-1.18934 0.16266,-2.23334 h 0.92534 l -0.0467,3.868 0.0467,3.848 h -0.98267 c 0.005,-1.35866 -0.0507,-2.19733 -0.17067,-2.512 -0.0947,-0.23466 -0.25733,-0.38 -0.492,-0.44 -0.52533,-0.128 -1.2,-0.196 -2.02266,-0.196 -0.73867,0 -1.34934,0.0373 -1.828,0.10667 v 7.456 c 0,0.832 0.0107,1.54533 0.0333,2.144 0.61733,0.0693 1.34933,0.10533 2.19467,0.10533 0.82133,0 1.58266,-0.04 2.28,-0.12266 0.69866,-0.0813 1.124,-0.2 1.284,-0.352 0.0533,-0.0453 0.10533,-0.152 0.14933,-0.316 0.136,-0.564 0.284,-1.62934 0.43467,-3.19867 h 0.936 c -0.168,2.32 -0.25067,4.22933 -0.25067,5.73067 l -0.14933,0.228 c -0.48667,0.0827 -1.18,0.12266 -2.08,0.12266 l -1.84,-0.052 c -1.812,-0.0347 -3.06134,-0.0533 -3.748,-0.0533 -0.18134,0 -1.45467,0.0347 -3.81467,0.10533"
       style="fill:#ffffff;fill-opacity:1;fill-rule:nonzero;stroke:none;stroke-width:1.33333" /><path
       id="path47"
       d="m 349.75907,-287.16641 v -1.44266 c 0.17333,0 0.78533,0.0253 1.828,0.0707 0.50933,0.024 1.23333,0.036 2.17333,0.036 0.79867,0 1.484,-0.024 2.056,-0.072 0.94534,-0.0573 1.72534,-0.0867 2.34267,-0.0867 1.196,0 2.08933,0.13066 2.684,0.39466 0.596,0.26534 1.10267,0.812 1.52,1.64667 0.41867,0.82933 0.62933,1.844 0.62933,3.03867 0,1.42 -0.28533,2.70666 -0.85733,3.86933 -0.57333,1.15733 -1.452,2.07733 -2.64,2.75867 0.18933,0.528 0.40667,1.06666 0.65067,1.61733 0.24666,0.55333 0.38666,0.884 0.42933,1.00133 0.0427,0.11867 0.0853,0.22934 0.13067,0.33467 l 1.772,4.09733 c 0.47333,1.088 0.728,1.67467 0.76533,1.75734 0.572,1.17333 0.92133,1.86266 1.052,2.07333 0.128,0.212 0.25333,0.36 0.376,0.44 0.12267,0.0813 0.364,0.12933 0.72267,0.14133 v 1.46 c -1.176,-0.0453 -2.024,-0.0707 -2.55067,-0.0707 -0.60933,0 -1.21467,0.0253 -1.81467,0.0707 -0.04,-0.25733 -0.132,-0.59333 -0.276,-1.00266 l -2.44666,-6.20667 c -0.69867,-1.78 -1.29467,-3.18133 -1.784,-4.20133 -0.24,-0.516 -0.47867,-0.90267 -0.70534,-1.16 l 0.12667,-0.58 c 0.91067,0.0467 1.60133,-0.0973 2.06667,-0.43067 0.464,-0.33333 0.856,-0.932 1.176,-1.79333 0.32133,-0.86134 0.48266,-1.82534 0.48266,-2.89067 0,-1.08 -0.168,-1.97467 -0.504,-2.692 -0.336,-0.71333 -0.752,-1.21067 -1.24666,-1.49333 -0.31867,-0.17734 -0.89067,-0.26267 -1.71334,-0.26267 -0.36666,0 -0.728,0.044 -1.08533,0.14133 -0.024,0.41867 -0.0467,1.368 -0.0693,2.84667 -0.0453,3.316 -0.068,5.532 -0.068,6.644 0,1.75867 0.012,3.624 0.0333,5.59067 0.032,2.41333 0.0533,3.78666 0.0693,4.11466 0.024,0.65467 0.0653,1.084 0.12534,1.284 0.028,0.0933 0.08,0.17734 0.14933,0.25334 0.068,0.0773 0.17867,0.13733 0.33067,0.184 0.152,0.048 0.596,0.0827 1.324,0.10666 v 1.548 c -1.30134,-0.0707 -2.61867,-0.108 -3.952,-0.108 -1.18934,0 -2.288,0.0373 -3.30267,0.108 v -1.548 c 0.86933,-0.0453 1.384,-0.112 1.54133,-0.19333 0.092,-0.0347 0.15867,-0.0933 0.20134,-0.176 0.0413,-0.0813 0.0747,-0.24667 0.096,-0.49333 0.0547,-0.45734 0.0907,-1.14667 0.11466,-2.072 l 0.092,-5.13467 v -6.52133 l -0.044,-3.71067 c -0.016,-1.464 -0.0613,-2.34267 -0.13866,-2.63733 -0.0387,-0.12667 -0.096,-0.22667 -0.17067,-0.29867 -0.18267,-0.13867 -0.74667,-0.25733 -1.692,-0.35067"
       style="fill:#ffffff;fill-opacity:1;fill-rule:nonzero;stroke:none;stroke-width:1.33333" /><path
       id="path48"
       d="m 377.50387,-282.19188 h -0.95867 c -0.016,-1.36 -0.0547,-2.32 -0.116,-2.88266 -0.23466,-0.516 -0.64266,-0.97334 -1.22666,-1.372 -0.584,-0.39734 -1.236,-0.59734 -1.96,-0.59734 -1.03867,0 -1.83867,0.40267 -2.40534,1.204 -0.56666,0.80267 -0.852,1.74267 -0.852,2.82134 0.007,0.77466 0.0933,1.40266 0.252,1.88266 0.16134,0.48 0.388,0.86 0.68667,1.14267 0.29467,0.28 0.73333,0.53867 1.31333,0.77333 0.44134,0.13867 1.05734,0.31467 1.84534,0.528 0.788,0.20934 1.30133,0.35467 1.53733,0.43867 0.616,0.24533 1.11467,0.54133 1.496,0.88667 0.38267,0.34666 0.68667,0.74266 0.90933,1.19733 0.224,0.44933 0.408,1.01867 0.55467,1.704 0.144,0.68667 0.21467,1.456 0.21467,2.312 0,1.49867 -0.20134,2.82133 -0.604,3.95467 -0.304,0.856 -0.728,1.64 -1.26934,2.34666 -0.53866,0.71067 -1.096,1.24134 -1.668,1.59334 -0.91333,0.56133 -2.01066,0.844 -3.29066,0.844 -0.93467,0 -1.77067,-0.13867 -2.50134,-0.404 -0.73066,-0.27334 -1.536,-0.73467 -2.412,-1.38934 0.236,-1.33733 0.35867,-3.37066 0.36534,-6.10266 h 0.96 c -0.016,0.844 0.0253,1.89466 0.124,3.148 0.29066,0.72666 0.788,1.36533 1.48666,1.91466 0.70134,0.55334 1.46667,0.82667 2.29734,0.82667 0.724,0 1.36933,-0.19333 1.93733,-0.58667 0.56533,-0.39466 0.97867,-0.93466 1.23333,-1.628 0.25467,-0.69066 0.384,-1.47466 0.384,-2.356 0,-0.73733 -0.0893,-1.36933 -0.27066,-1.89866 -0.17867,-0.52667 -0.45734,-0.94667 -0.83734,-1.26534 -0.384,-0.31733 -1.052,-0.644 -2.012,-0.98266 -1.37733,-0.44667 -2.28533,-0.77067 -2.72133,-0.968 -0.65467,-0.30534 -1.18267,-0.74534 -1.58,-1.31867 -0.40133,-0.57333 -0.7,-1.27067 -0.9,-2.084 -0.19733,-0.816 -0.29467,-1.68933 -0.29467,-2.62667 0,-1.31466 0.17867,-2.52533 0.536,-3.632 0.35734,-1.10666 0.83067,-1.964 1.416,-2.57466 0.58667,-0.608 1.24934,-1.04667 1.98934,-1.30934 0.73866,-0.26266 1.49733,-0.396 2.27466,-0.396 0.808,0 1.58934,0.11067 2.34934,0.33334 0.75466,0.224 1.41333,0.54533 1.968,0.96666 l 0.0933,0.42134 c -0.10667,0.76266 -0.18533,1.51066 -0.23467,2.244 -0.0493,0.732 -0.0853,1.69466 -0.10933,2.89066"
       style="fill:#ffffff;fill-opacity:1;fill-rule:nonzero;stroke:none;stroke-width:1.33333" /><path
       id="path49"
       d="m 388.3828,-288.62615 v 1.54667 c -0.76933,0.0347 -1.22667,0.0787 -1.37067,0.132 -0.144,0.0533 -0.24933,0.11867 -0.308,0.19467 -0.064,0.076 -0.104,0.17333 -0.12666,0.28933 -0.0547,0.2 -0.092,0.58133 -0.11334,1.14267 -0.0173,0.30533 -0.0253,0.88 -0.0333,1.724 -0.032,2.88266 -0.048,4.43333 -0.048,4.656 v 7.08533 l 0.032,3.22 c 0,1.20533 0.0413,1.99067 0.116,2.35467 0.032,0.16266 0.0827,0.28933 0.15467,0.37733 0.072,0.088 0.18666,0.15733 0.34266,0.21067 0.15734,0.0533 0.608,0.0907 1.35467,0.11466 v 1.54667 c -1.24267,-0.068 -2.56667,-0.10667 -3.97733,-0.10667 -1.224,0 -2.31867,0.0387 -3.27734,0.10667 v -1.54667 c 0.79067,-0.0467 1.248,-0.0867 1.37067,-0.124 0.15733,-0.0453 0.268,-0.11066 0.32533,-0.19333 0.0573,-0.0813 0.0907,-0.176 0.108,-0.28133 0.0213,-0.14134 0.052,-0.692 0.092,-1.65067 0.0587,-1.40667 0.092,-2.708 0.092,-3.904 v -7.35067 c 0,-2.32933 -0.008,-3.828 -0.024,-4.49733 -0.0373,-1.49067 -0.0827,-2.42133 -0.13866,-2.79467 -0.0213,-0.15466 -0.056,-0.27066 -0.10667,-0.35333 -0.0507,-0.0813 -0.14,-0.14933 -0.276,-0.20133 -0.13067,-0.0533 -0.61333,-0.104 -1.44267,-0.15067 v -1.54667 c 0.95867,0.072 2.05867,0.10667 3.3,0.10667 1.39467,0 2.712,-0.0347 3.95467,-0.10667"
       style="fill:#ffffff;fill-opacity:1;fill-rule:nonzero;stroke:none;stroke-width:1.33333" /><path
       id="path50"
       d="m 390.6224,-264.03175 v -0.84533 c 0.0613,-0.056 0.168,-0.14933 0.32,-0.27867 0.292,-0.24533 0.556,-0.504 0.8,-0.776 0.0853,-1.568 0.12667,-4.11866 0.12667,-7.64533 v -2.884 c 0,-1.54667 -0.02,-3.81333 -0.0573,-6.80533 -0.024,-1.65067 -0.0733,-2.70534 -0.148,-3.16134 -0.024,-0.10666 -0.0547,-0.18666 -0.092,-0.248 -0.0613,-0.092 -0.156,-0.164 -0.28666,-0.21066 -0.12934,-0.0467 -0.608,-0.15067 -1.43867,-0.31467 v -1.42533 l 4.148,0.10667 c 0.488,0 1.404,-0.0307 2.75467,-0.088 0.97333,-0.036 1.752,-0.0533 2.34266,-0.0533 1.34534,0 2.42534,0.128 3.23867,0.38 0.812,0.25067 1.51733,0.65467 2.11867,1.21067 0.60133,0.556 1.11066,1.21466 1.52666,1.97866 0.412,0.76 0.72934,1.58267 0.94267,2.46267 0.356,1.476 0.536,3.08933 0.536,4.84933 0,2.23867 -0.26667,4.23734 -0.79867,5.996 -0.536,1.75734 -1.268,3.228 -2.2,4.412 -0.93333,1.18534 -1.944,2.036 -3.03466,2.556 -1.08934,0.524 -2.40267,0.784 -3.94134,0.784 l -3.39333,-0.10533 z m 4.572,-2.144 c 0.70667,0.16267 1.388,0.244 2.032,0.244 1.01467,0 1.91467,-0.164 2.69733,-0.49066 0.58,-0.24667 1.08667,-0.60267 1.52134,-1.07067 0.432,-0.47067 0.84933,-1.16267 1.252,-2.07467 0.39733,-0.91466 0.708,-2.00533 0.932,-3.272 0.21866,-1.26666 0.32933,-2.63066 0.32933,-4.096 0,-1.33466 -0.11067,-2.62666 -0.32933,-3.876 -0.224,-1.248 -0.584,-2.34266 -1.08934,-3.27866 -0.5,-0.93734 -1.136,-1.61734 -1.90533,-2.03867 -0.772,-0.42267 -1.936,-0.63467 -3.496,-0.63467 -0.58933,0 -1.23733,0.0787 -1.944,0.22934 -0.0787,1.66533 -0.11333,4.8 -0.11333,9.40533 v 4.044 c 0,3.49333 0.0347,5.796 0.11333,6.90933"
       style="fill:#ffffff;fill-opacity:1;fill-rule:nonzero;stroke:none;stroke-width:1.33333" /><path
       id="path51"
       d="m 409.17973,-264.03175 v -1.45733 c 0.61733,-0.072 0.98533,-0.132 1.104,-0.18533 0.11733,-0.0533 0.21733,-0.13467 0.30267,-0.24667 0.0827,-0.11333 0.16933,-0.28667 0.256,-0.528 0.088,-0.24 0.348,-1.13333 0.78133,-2.68133 0.2,-0.72534 0.58267,-2.16134 1.14533,-4.308 l 2.984,-11.31867 1.004,-3.992 h 1.62 l 5.10934,18.35467 0.71066,2.40666 0.456,1.61867 c 0.076,0.20933 0.14667,0.364 0.21867,0.45867 0.064,0.092 0.14533,0.164 0.23067,0.20933 0.088,0.048 0.31066,0.088 0.67066,0.12133 0.11467,0.024 0.28,0.0533 0.50267,0.0907 v 1.45733 l -3.17733,-0.10533 -4.00934,0.10533 v -1.45733 c 0.92134,-0.06 1.44134,-0.14 1.56,-0.23867 0.11467,-0.0987 0.17467,-0.26533 0.17467,-0.50133 0,-0.29333 -0.088,-0.77467 -0.26133,-1.44133 l -0.98134,-3.868 h -5.87466 l -0.50267,2.10933 c -0.38133,1.62 -0.572,2.62667 -0.572,3.024 0,0.28133 0.06,0.48133 0.184,0.59733 0.18,0.164 0.72533,0.27067 1.632,0.31867 v 1.45733 l -2.64,-0.10533 z m 5.05067,-9.51066 c 0.716,0.0347 1.53066,0.0533 2.43466,0.0533 0.876,0 1.66134,-0.0187 2.35467,-0.0533 l -2.44533,-9.072 z"
       style="fill:#ffffff;fill-opacity:1;fill-rule:nonzero;stroke:none;stroke-width:1.33333" /><path
       id="path52"
       d="m 428.3216,-264.03175 v -0.84533 c 0.06,-0.056 0.16533,-0.14933 0.32,-0.27867 0.28933,-0.24533 0.556,-0.504 0.79733,-0.776 0.0867,-1.568 0.12667,-4.11866 0.12667,-7.64533 v -2.884 c 0,-1.54667 -0.02,-3.81333 -0.0573,-6.80533 -0.0213,-1.65067 -0.0733,-2.70534 -0.148,-3.16134 -0.0227,-0.10666 -0.0533,-0.18666 -0.0893,-0.248 -0.0613,-0.092 -0.156,-0.164 -0.28666,-0.21066 -0.13067,-0.0467 -0.60934,-0.15067 -1.44,-0.31467 v -1.42533 l 4.14666,0.10667 c 0.48934,0 1.40667,-0.0307 2.756,-0.088 0.97334,-0.036 1.75334,-0.0533 2.34134,-0.0533 1.348,0 2.428,0.128 3.24,0.38 0.81333,0.25067 1.516,0.65467 2.12,1.21067 0.60133,0.556 1.11066,1.21466 1.524,1.97866 0.41733,0.76 0.73066,1.58267 0.94266,2.46267 0.35867,1.476 0.53734,3.08933 0.53734,4.84933 0,2.23867 -0.26667,4.23734 -0.79867,5.996 -0.53467,1.75734 -1.268,3.228 -2.2,4.412 -0.93333,1.18534 -1.944,2.036 -3.03467,2.556 -1.09066,0.524 -2.40133,0.784 -3.94,0.784 l -3.396,-0.10533 z m 4.57067,-2.144 c 0.708,0.16267 1.38666,0.244 2.03333,0.244 1.01467,0 1.91333,-0.164 2.696,-0.49066 0.58133,-0.24667 1.08533,-0.60267 1.52133,-1.07067 0.43334,-0.47067 0.84934,-1.16267 1.252,-2.07467 0.39867,-0.91466 0.70934,-2.00533 0.93067,-3.272 0.21867,-1.26666 0.332,-2.63066 0.332,-4.096 0,-1.33466 -0.11333,-2.62666 -0.332,-3.876 -0.22133,-1.248 -0.58133,-2.34266 -1.08667,-3.27866 -0.50133,-0.93734 -1.13866,-1.61734 -1.908,-2.03867 -0.77066,-0.42267 -1.936,-0.63467 -3.496,-0.63467 -0.588,0 -1.23466,0.0787 -1.94266,0.22934 -0.0787,1.66533 -0.11467,4.8 -0.11467,9.40533 v 4.044 c 0,3.49333 0.036,5.796 0.11467,6.90933"
       style="fill:#ffffff;fill-opacity:1;fill-rule:nonzero;stroke:none;stroke-width:1.33333" /><path
       id="path53"
       d="m 285.82427,-202.11375 -0.524,1.776 c -0.952,0.77334 -1.80933,1.304 -2.56667,1.59067 -0.76,0.28533 -1.704,0.43067 -2.83866,0.43067 -1.616,0 -3.044,-0.392 -4.28534,-1.17734 -0.976,-0.63466 -1.80266,-1.47333 -2.48,-2.51466 -0.67733,-1.044 -1.2,-2.172 -1.56533,-3.39334 -0.55733,-1.84 -0.83333,-3.83866 -0.83333,-5.996 0,-3.69066 0.82133,-6.704 2.46,-9.044 1.644,-2.33733 3.96133,-3.50533 6.95466,-3.50533 1.02934,0 1.95067,0.116 2.772,0.352 0.82,0.232 1.768,0.64933 2.84934,1.248 l 0.0573,0.228 c -0.12133,0.54933 -0.21733,1.24133 -0.28533,2.07333 -0.11467,1.32667 -0.18667,2.54934 -0.216,3.676 h -0.892 c -0.0147,-1.29066 -0.052,-2.32266 -0.11467,-3.09466 -0.51067,-0.82134 -1.084,-1.43334 -1.71867,-1.83867 -0.636,-0.40133 -1.452,-0.608 -2.44,-0.608 -1.792,0 -3.224,0.872 -4.29733,2.612 -1.07067,1.74133 -1.612,4.17067 -1.612,7.28933 0,1.884 0.18267,3.532 0.54533,4.93867 0.36,1.404 0.84,2.56933 1.44534,3.488 0.60133,0.92133 1.20666,1.592 1.81733,2.01467 0.828,0.56266 1.83467,0.844 3.016,0.844 0.77733,0 1.512,-0.136 2.20533,-0.40667 0.692,-0.26933 1.448,-0.732 2.26134,-1.38667 z"
       style="fill:#ffffff;fill-opacity:1;fill-rule:nonzero;stroke:none;stroke-width:1.33333" /><path
       id="path54"
       d="m 287.6536,-210.93921 c 0,-2.14533 0.21067,-4.01466 0.63333,-5.608 0.424,-1.59333 1.028,-2.948 1.81067,-4.06 0.78533,-1.112 1.64,-1.916 2.56133,-2.40933 1.18134,-0.62133 2.468,-0.932 3.86,-0.932 1.38667,0 2.64534,0.30133 3.77334,0.89733 0.83733,0.456 1.57733,1.116 2.22266,1.97734 0.644,0.86133 1.132,1.74266 1.46934,2.64666 0.33466,0.90267 0.58666,1.89334 0.75733,2.96934 0.17333,1.08 0.25867,2.268 0.25867,3.56933 0,2.20267 -0.24667,4.24933 -0.744,6.136 -0.36534,1.404 -0.90134,2.65333 -1.604,3.744 -0.70667,1.088 -1.50667,1.92933 -2.40667,2.51333 -1.23333,0.78534 -2.64267,1.17734 -4.228,1.17734 -1.71333,0 -3.18533,-0.476 -4.416,-1.43067 -1.22933,-0.956 -2.196,-2.36667 -2.896,-4.228 -0.70133,-1.86533 -1.052,-4.18533 -1.052,-6.96267 m 3.52,-1.03466 c 0,2.72933 0.24267,4.988 0.73067,6.776 0.488,1.78666 1.11066,3.04933 1.87466,3.788 0.76,0.73733 1.66134,1.108 2.69467,1.108 0.96133,0 1.82,-0.35334 2.57733,-1.056 0.756,-0.70134 1.35334,-1.89067 1.784,-3.568 0.43067,-1.676 0.644,-3.70934 0.644,-6.1 0,-1.64134 -0.11466,-3.14267 -0.34666,-4.5 -0.232,-1.36134 -0.56534,-2.51867 -1,-3.47334 -0.43467,-0.95466 -0.948,-1.68666 -1.536,-2.18933 -0.592,-0.504 -1.37467,-0.756 -2.34934,-0.756 -1.112,0 -2.06,0.40267 -2.83866,1.204 -0.78267,0.804 -1.34934,1.98933 -1.704,3.56 -0.35467,1.572 -0.53067,3.30667 -0.53067,5.20667 m 4.21467,-13.22267 h -1.38267 l 2.688,-5.01067 c 0.38667,-0.72533 0.69867,-1.19866 0.932,-1.416 0.22933,-0.21733 0.49733,-0.32266 0.792,-0.32266 0.396,0 0.716,0.17866 0.95867,0.53333 0.24533,0.36 0.368,0.79067 0.368,1.29467 0,0.33733 -0.0693,0.65066 -0.20667,0.92933 -0.22133,0.436 -0.60533,0.892 -1.152,1.37333 z"
       style="fill:#ffffff;fill-opacity:1;fill-rule:nonzero;stroke:none;stroke-width:1.33333" /><path
       id="path55"
       d="m 306.8516,-222.06681 v -1.44266 c 0.17333,0 0.78533,0.0253 1.82933,0.072 0.508,0.0213 1.232,0.0347 2.17067,0.0347 0.79867,0 1.484,-0.0253 2.056,-0.0707 0.94533,-0.0587 1.72667,-0.088 2.344,-0.088 1.19333,0 2.088,0.13066 2.684,0.39466 0.59467,0.26534 1.10133,0.812 1.52,1.64667 0.42,0.828 0.62933,1.844 0.62933,3.03733 0,1.42134 -0.28666,2.708 -0.85866,3.87067 -0.572,1.15733 -1.45067,2.07733 -2.63867,2.75733 0.18933,0.52934 0.40667,1.068 0.65067,1.61867 0.24533,0.552 0.38533,0.88533 0.428,1.004 0.0427,0.116 0.0853,0.22667 0.132,0.332 l 1.772,4.09733 c 0.472,1.08934 0.72666,1.67467 0.76533,1.75734 0.572,1.17333 0.92,1.864 1.05067,2.07333 0.12933,0.21067 0.25466,0.36 0.37733,0.44133 0.12267,0.0827 0.36267,0.128 0.72133,0.14 v 1.46 c -1.176,-0.0467 -2.024,-0.0707 -2.55066,-0.0707 -0.60934,0 -1.21467,0.024 -1.81467,0.0707 -0.0373,-0.25866 -0.13067,-0.59333 -0.276,-1.00266 l -2.444,-6.20667 c -0.7,-1.78 -1.296,-3.18133 -1.78533,-4.20133 -0.24134,-0.51467 -0.48,-0.90267 -0.70667,-1.16 l 0.12667,-0.58134 c 0.912,0.0493 1.60133,-0.0947 2.068,-0.43066 0.46266,-0.33334 0.856,-0.93067 1.17466,-1.79334 0.32134,-0.86 0.484,-1.824 0.484,-2.88933 0,-1.08 -0.168,-1.97467 -0.50533,-2.69067 -0.336,-0.71466 -0.752,-1.212 -1.244,-1.49333 -0.32,-0.176 -0.892,-0.264 -1.71467,-0.264 -0.368,0 -0.728,0.048 -1.08533,0.14 -0.024,0.42133 -0.0467,1.37067 -0.0693,2.84933 -0.0453,3.31467 -0.068,5.53067 -0.068,6.644 0,1.75734 0.0107,3.62267 0.0333,5.58934 0.0307,2.41466 0.052,3.78666 0.068,4.11333 0.024,0.656 0.0653,1.08533 0.12667,1.284 0.028,0.0947 0.0787,0.17733 0.148,0.256 0.068,0.076 0.17866,0.13733 0.332,0.18133 0.152,0.048 0.59466,0.084 1.32533,0.10934 v 1.54666 c -1.30267,-0.0707 -2.62,-0.108 -3.95467,-0.108 -1.188,0 -2.288,0.0373 -3.30133,0.108 v -1.54666 c 0.868,-0.048 1.38267,-0.112 1.54133,-0.19334 0.092,-0.036 0.15734,-0.0947 0.20267,-0.17733 0.0387,-0.0813 0.072,-0.24667 0.0947,-0.49333 0.0547,-0.456 0.0907,-1.14667 0.11466,-2.07334 l 0.0907,-5.13333 v -6.52133 l -0.044,-3.70934 c -0.0147,-1.46533 -0.0613,-2.34533 -0.13733,-2.63733 -0.04,-0.128 -0.0973,-0.228 -0.17067,-0.3 -0.18267,-0.14 -0.74667,-0.256 -1.692,-0.35067"
       style="fill:#ffffff;fill-opacity:1;fill-rule:nonzero;stroke:none;stroke-width:1.33333" /><path
       id="path56"
       d="m 324.31253,-198.93148 v -0.844 c 0.0613,-0.0573 0.16667,-0.15333 0.31733,-0.28133 0.292,-0.24667 0.556,-0.504 0.8,-0.77467 0.084,-1.56933 0.12667,-4.11866 0.12667,-7.64533 v -2.88267 c 0,-1.54666 -0.0173,-3.816 -0.056,-6.80666 -0.0227,-1.64934 -0.0747,-2.704 -0.15067,-3.16134 -0.02,-0.10666 -0.052,-0.188 -0.0893,-0.248 -0.0613,-0.0933 -0.156,-0.16266 -0.28533,-0.21066 -0.13067,-0.0467 -0.61067,-0.15334 -1.44,-0.31734 v -1.42266 l 4.14666,0.10667 c 0.488,0 1.40667,-0.032 2.756,-0.088 0.97334,-0.036 1.75467,-0.056 2.34134,-0.056 1.34666,0 2.43066,0.128 3.23866,0.38 0.812,0.25333 1.51734,0.65733 2.12134,1.21333 0.60133,0.55733 1.108,1.216 1.52533,1.97733 0.416,0.76133 0.72933,1.584 0.94133,2.46133 0.35867,1.47734 0.53734,3.09467 0.53734,4.852 0,2.23867 -0.26667,4.23734 -0.8,5.99734 -0.53334,1.75466 -1.268,3.22533 -2.19867,4.41066 -0.93333,1.18534 -1.94533,2.036 -3.03467,2.55734 -1.09066,0.52133 -2.404,0.78266 -3.94133,0.78266 l -3.39333,-0.10533 z m 4.57067,-2.14533 c 0.708,0.164 1.384,0.24533 2.03333,0.24533 1.01467,0 1.912,-0.164 2.69733,-0.49066 0.57734,-0.24667 1.084,-0.604 1.51867,-1.07334 0.43333,-0.468 0.852,-1.16266 1.25067,-2.072 0.40133,-0.91733 0.712,-2.00533 0.93333,-3.27333 0.21867,-1.26533 0.33067,-2.62933 0.33067,-4.09467 0,-1.33733 -0.112,-2.628 -0.33067,-3.876 -0.22133,-1.248 -0.58267,-2.34133 -1.08667,-3.27866 -0.50266,-0.93734 -1.13866,-1.61867 -1.908,-2.04134 -0.77066,-0.42 -1.93333,-0.632 -3.49866,-0.632 -0.58534,0 -1.232,0.0773 -1.94,0.22934 -0.0787,1.664 -0.11467,4.80133 -0.11467,9.40533 v 4.044 c 0,3.492 0.036,5.796 0.11467,6.908"
       style="fill:#ffffff;fill-opacity:1;fill-rule:nonzero;stroke:none;stroke-width:1.33333" /><path
       id="path57"
       d="m 343.54293,-210.93921 c 0,-2.14533 0.212,-4.01466 0.63467,-5.608 0.42266,-1.59333 1.02666,-2.948 1.80933,-4.06 0.78533,-1.112 1.64,-1.916 2.56133,-2.40933 1.18134,-0.62133 2.468,-0.932 3.86,-0.932 1.38667,0 2.64534,0.30133 3.77334,0.89733 0.83733,0.456 1.57733,1.116 2.22266,1.97734 0.64534,0.86133 1.132,1.74266 1.46934,2.64666 0.33466,0.90267 0.58666,1.89334 0.75733,2.96934 0.17333,1.08 0.25733,2.268 0.25733,3.56933 0,2.20267 -0.24533,4.24933 -0.74266,6.136 -0.36534,1.404 -0.90134,2.65333 -1.604,3.744 -0.704,1.088 -1.50667,1.92933 -2.40667,2.51333 -1.23333,0.78534 -2.644,1.17734 -4.22667,1.17734 -1.71466,0 -3.18533,-0.476 -4.41866,-1.43067 -1.228,-0.956 -2.19467,-2.36667 -2.89467,-4.228 -0.70133,-1.86533 -1.052,-4.18533 -1.052,-6.96267 m 3.51867,-1.03466 c 0,2.72933 0.24533,4.988 0.732,6.776 0.488,1.78666 1.112,3.04933 1.87466,3.788 0.76134,0.73733 1.66134,1.108 2.69467,1.108 0.96133,0 1.82,-0.35334 2.57867,-1.056 0.75733,-0.70134 1.352,-1.89067 1.784,-3.568 0.42933,-1.676 0.64266,-3.70934 0.64266,-6.1 0,-1.64134 -0.11466,-3.14267 -0.348,-4.5 -0.23066,-1.36134 -0.564,-2.51867 -1,-3.47334 -0.43333,-0.95466 -0.94666,-1.68666 -1.53466,-2.18933 -0.592,-0.504 -1.37467,-0.756 -2.34934,-0.756 -1.112,0 -2.06,0.40267 -2.83866,1.204 -0.78267,0.804 -1.34934,1.98933 -1.70534,3.56 -0.35466,1.572 -0.53066,3.30667 -0.53066,5.20667"
       style="fill:#ffffff;fill-opacity:1;fill-rule:nonzero;stroke:none;stroke-width:1.33333" /><path
       id="path58"
       d="m 363.6328,-198.93148 v -0.82666 c 0.40133,-0.364 0.73867,-0.72534 1.00533,-1.08934 0.0453,-0.57333 0.0747,-1.27733 0.0933,-2.112 0.0267,-1.70933 0.0427,-4.82133 0.0427,-9.33333 0,-1.20533 -0.02,-3.088 -0.0573,-5.64267 -0.0213,-1.968 -0.0627,-3.096 -0.12667,-3.37466 -0.036,-0.176 -0.0933,-0.29734 -0.16933,-0.37067 -0.16,-0.164 -0.732,-0.292 -1.71467,-0.38667 v -1.45866 c 0.168,0 0.344,0.007 0.52667,0.0187 l 1.57733,0.068 c 0.51734,0.0147 1.16134,0.02 1.93067,0.02 0.76133,0 1.36,-0.0133 1.796,-0.036 1.092,-0.0707 1.81067,-0.108 2.14533,-0.108 1.256,0 2.22534,0.20266 2.908,0.6 0.68134,0.39599 1.18267,0.97466 1.49867,1.73066 0.31467,0.756 0.472,1.60267 0.472,2.54267 0,1.00666 -0.18,1.94533 -0.54267,2.81066 -0.35866,0.868 -0.82266,1.54 -1.38666,2.024 -0.33467,0.292 -1.08267,0.68267 -2.24,1.176 1.38666,0.25734 2.35066,0.6 2.896,1.02 0.544,0.42267 0.98133,1.08267 1.30933,1.97734 0.32667,0.89866 0.49067,1.89466 0.49067,3 0,1.15733 -0.168,2.21066 -0.50267,3.15333 -0.33333,0.94533 -0.76533,1.748 -1.29733,2.416 -0.53067,0.668 -1.13467,1.19867 -1.82134,1.59333 -0.68933,0.392 -1.54266,0.588 -2.572,0.588 l -3.84,-0.10533 c -0.616,0 -1.42533,0.0347 -2.42133,0.10533 m 4.32933,-14.45066 0.66534,0.0173 c 0.516,0 0.996,-0.064 1.436,-0.19467 0.444,-0.12666 0.80133,-0.352 1.07733,-0.676 0.27333,-0.32266 0.504,-0.804 0.69067,-1.44266 0.18666,-0.63734 0.27733,-1.37334 0.27733,-2.20534 0,-0.844 -0.104,-1.56266 -0.31733,-2.15333 -0.21334,-0.58933 -0.49067,-1.01333 -0.836,-1.264 -0.34134,-0.25333 -0.85467,-0.38 -1.54134,-0.38 -0.496,0 -0.94533,0.0467 -1.348,0.14133 -0.0467,0.84267 -0.072,1.81734 -0.0787,2.91867 l -0.0253,2.72267 z m 0.0453,12.48 c 0.252,0.0827 0.724,0.124 1.42,0.124 0.94533,0 1.70666,-0.476 2.28933,-1.432 0.58267,-0.95734 0.87467,-2.324 0.87467,-4.104 0,-1.26667 -0.15334,-2.292 -0.45734,-3.07867 -0.30533,-0.78533 -0.708,-1.34 -1.21066,-1.66 -0.504,-0.32267 -1.19734,-0.48533 -2.08134,-0.48533 -0.312,0 -0.60533,0.024 -0.88,0.0733 v 8.01333 l 0.0253,2.09467 c 0,0.06 0.007,0.20933 0.02,0.45467"
       style="fill:#ffffff;fill-opacity:1;fill-rule:nonzero;stroke:none;stroke-width:1.33333" /><path
       id="path59"
       d="m 377.97267,-198.93148 v -1.45733 c 0.61733,-0.072 0.98533,-0.13333 1.10133,-0.18533 0.12,-0.052 0.21867,-0.13467 0.304,-0.24667 0.0827,-0.11333 0.16934,-0.28933 0.25867,-0.528 0.0867,-0.24 0.34667,-1.13467 0.78133,-2.68 0.19734,-0.72667 0.58134,-2.164 1.14134,-4.30933 l 2.98666,-11.31867 1.004,-3.99333 h 1.62 l 5.11067,18.356 0.70667,2.40666 0.45866,1.616 c 0.076,0.212 0.14667,0.36667 0.216,0.45867 0.068,0.0947 0.148,0.16533 0.23334,0.20933 0.088,0.048 0.312,0.0893 0.668,0.124 0.11466,0.0227 0.28266,0.052 0.504,0.0907 v 1.45733 l -3.176,-0.10533 -4.00934,0.10533 v -1.45733 c 0.92134,-0.06 1.44134,-0.14 1.56134,-0.23733 0.11333,-0.10267 0.17333,-0.268 0.17333,-0.50134 0,-0.29333 -0.0867,-0.776 -0.26,-1.44266 l -0.98533,-3.868 h -5.87067 l -0.50533,2.10933 c -0.38,1.61867 -0.572,2.62533 -0.572,3.024 0,0.28 0.0613,0.48133 0.184,0.59733 0.18133,0.164 0.72666,0.27067 1.63333,0.31867 v 1.45733 l -2.64,-0.10533 z m 5.04933,-9.51066 c 0.71734,0.0347 1.52934,0.0507 2.43467,0.0507 0.87733,0 1.66,-0.016 2.356,-0.0507 l -2.44533,-9.07334 z"
       style="fill:#ffffff;fill-opacity:1;fill-rule:nonzero;stroke:none;stroke-width:1.33333" /><path
       id="path60"
       d="m 187.56907,-318.68268 -57.28,30.28 v 92.53333 l 57.28,30.28 57.29333,-30.28 v -92.53333 z m 48.10667,51.832 -26.55467,33.40134 c -1.012,-1.48134 -2.18,-2.84134 -3.468,-4.08267 l 23.63467,-40.78133 c 2.59066,3.508 4.74,7.35466 6.388,11.46266 m -27.11467,-28.10266 c 4.148,1.84 8.00933,4.20533 11.5,7.01866 l -18.728,47.048 c -1.56533,-0.976 -3.236,-1.788 -4.99867,-2.41733 z m -20.98533,-4.44134 c 2.71466,0 5.38,0.212 7.98266,0.61334 l -4.668,54.16666 c -1.08666,-0.13866 -2.18933,-0.23466 -3.31466,-0.23466 -0.776,0 -1.54134,0.0507 -2.30267,0.11733 l -3.29067,-54.356 c 1.836,-0.2 3.70267,-0.30667 5.59334,-0.30667 m -18.768,3.51867 10.96266,52.22133 c -1.79066,0.564 -3.492,1.32934 -5.096,2.248 l -17.696,-47.984 c 3.616,-2.648 7.58667,-4.83466 11.82934,-6.48533 m -21.50534,15.70533 22.92134,41.98134 c -1.34,1.19733 -2.55467,2.52933 -3.62534,3.97733 l -26.216,-34.76 c 1.83334,-4.03467 4.16134,-7.79467 6.92,-11.19867 m -10.73466,23.50267 27.35466,26.96 c -0.70933,1.52267 -1.26933,3.12 -1.67466,4.78267 l -26.488,-19.38134 c -0.003,-1.16 -0.003,-2.28533 -0.003,-3.268 0,-3.10533 0.28667,-6.13866 0.81067,-9.09333 m 48.27466,83.448 -49.08533,-25.94267 v -28.20133 l 40.624,21.46933 c 4.67333,2.46933 8.46133,8.75733 8.46133,14.04133 z m -14.436,-42.79067 v 0 l -2.92133,-1.54266 c -0.0267,-0.39867 -0.0613,-0.79334 -0.0613,-1.19867 0,-1.51333 0.18,-2.98 0.49733,-4.39867 0.003,-0.012 0.007,-0.0227 0.008,-0.0333 0.652,-2.90667 1.936,-5.57067 3.69733,-7.852 0.0227,-0.0293 0.0427,-0.0613 0.0667,-0.0907 0.45867,-0.588 0.94533,-1.15466 1.46533,-1.692 1.08267,-1.108 2.29467,-2.084 3.60534,-2.92 l 0.003,-0.003 c 0.63867,-0.408 1.304,-0.77467 1.99067,-1.11067 0.04,-0.0187 0.08,-0.0373 0.12133,-0.0573 0.688,-0.33067 1.396,-0.624 2.124,-0.87734 1.47734,-0.51066 3.02267,-0.86533 4.63067,-1.02 0.63867,-0.0613 1.28667,-0.0987 1.94267,-0.0987 0.536,0 1.064,0.0333 1.58933,0.0813 2.032,0.16 3.976,0.616 5.79467,1.336 1.47333,0.58 2.85866,1.324 4.13866,2.21867 1.872,1.30666 3.50134,2.92666 4.83334,4.78 0.0227,0.0307 0.0467,0.0573 0.068,0.0893 1.66533,2.344 2.84,5.05467 3.38133,7.996 v 0.007 c 0.12667,0.692 0.216,1.40266 0.26933,2.11866 0.0387,0.50667 0.0773,1.012 0.0773,1.52667 0,0.4 -0.0173,0.79467 -0.0453,1.19067 l -9.06533,4.792 -11.02,5.75599 z m 68.988,16.848 -49.084,25.94267 v -18.63334 c 0,-5.284 3.78667,-11.572 8.46,-14.04133 l 40.624,-21.46933 z m 0,-43.12533 -26.27066,18.21333 c -0.348,-1.66533 -0.85067,-3.272 -1.49734,-4.80666 l 27.3,-25.56934 c 0.29867,2.25067 0.468,4.544 0.468,6.876 v 5.28667"
       style="fill:#ffffff;fill-opacity:1;fill-rule:nonzero;stroke:none;stroke-width:1.33333" /></g></svg>
