<svg xmlns="http://www.w3.org/2000/svg" viewBox="0 0 780 342" id="dg-detect-to-pose-pipeline" role="img" aria-labelledby="dg-detect-to-pose-pipeline-t dg-detect-to-pose-pipeline-d">
<title id="dg-detect-to-pose-pipeline-t">From a thresholded image to a 3D object standing on the marker</title>
<desc id="dg-detect-to-pose-pipeline-d">Four stages left to right, each one working on the output of the one before. First, the camera image after thresholding: a black and white picture holding the marker and several other dark shapes. Second, the closed outlines found in that image, with the non-marker shapes rejected for not being four-sided convex quadrilaterals, and the marker's four corners marked. Third, those four corners define a homography, which maps the slanted quadrilateral back to a square so the grid of bits inside it can be sampled square-on and read as an identifier. Fourth, three of the corners are fed to a P3P pose solver and the fourth picks the right answer among its candidates, giving the marker's full position and orientation, which is what lets a cube be drawn standing on it. The pose recovered at the last stage matches the pose the image was generated from to within a millionth of a millimetre, so every stage here is computed rather than drawn.</desc>
<style>#dg-detect-to-pose-pipeline{--dg-ink:#0a0a0a;--dg-muted:rgba(10,10,10,0.62);--dg-faint:rgba(10,10,10,0.48);--dg-hairline:rgba(10,10,10,0.14);--dg-grid:rgba(10,10,10,0.07);--dg-surface:rgba(10,10,10,0.04);--dg-surface-strong:rgba(10,10,10,0.08);--dg-paper:#ffffff;--dg-accent:#5b5aa8;--dg-accent-soft:rgba(120,119,198,0.16);--dg-accent2:#00734d;--dg-accent2-soft:rgba(0,224,143,0.16);--dg-warn:#a54a08;--dg-warn-soft:rgba(180,83,9,0.14);max-width:100%;height:auto;display:block}[data-theme="dark"] #dg-detect-to-pose-pipeline{--dg-ink:#ffffff;--dg-muted:rgba(255,255,255,0.62);--dg-faint:rgba(255,255,255,0.40);--dg-hairline:rgba(255,255,255,0.14);--dg-grid:rgba(255,255,255,0.07);--dg-surface:rgba(255,255,255,0.05);--dg-surface-strong:rgba(255,255,255,0.10);--dg-paper:#0a0a0a;--dg-accent:#a5a4e0;--dg-accent-soft:rgba(120,119,198,0.22);--dg-accent2:#00e08f;--dg-accent2-soft:rgba(0,224,143,0.18);--dg-warn:#fbbf24;--dg-warn-soft:rgba(251,191,36,0.16);}@media(prefers-color-scheme:dark){:root:not([data-theme="light"]) #dg-detect-to-pose-pipeline{--dg-ink:#ffffff;--dg-muted:rgba(255,255,255,0.62);--dg-faint:rgba(255,255,255,0.40);--dg-hairline:rgba(255,255,255,0.14);--dg-grid:rgba(255,255,255,0.07);--dg-surface:rgba(255,255,255,0.05);--dg-surface-strong:rgba(255,255,255,0.10);--dg-paper:#0a0a0a;--dg-accent:#a5a4e0;--dg-accent-soft:rgba(120,119,198,0.22);--dg-accent2:#00e08f;--dg-accent2-soft:rgba(0,224,143,0.18);--dg-warn:#fbbf24;--dg-warn-soft:rgba(251,191,36,0.16);}}#dg-detect-to-pose-pipeline text{font-variant-numeric:tabular-nums;white-space:pre}#dg-detect-to-pose-pipeline .fr{opacity:0;animation-duration:9.6s;animation-timing-function:step-end;animation-iteration-count:infinite}@keyframes dg-detect-to-pose-pipeline-f0{0.0001%,21.7391%{opacity:1}21.7392%,100%{opacity:0}}#dg-detect-to-pose-pipeline .fr0{animation-name:dg-detect-to-pose-pipeline-f0}@keyframes dg-detect-to-pose-pipeline-f1{0%,21.7391%{opacity:0}21.7392%,43.4783%{opacity:1}43.4784%,100%{opacity:0}}#dg-detect-to-pose-pipeline .fr1{animation-name:dg-detect-to-pose-pipeline-f1}@keyframes dg-detect-to-pose-pipeline-f2{0%,43.4783%{opacity:0}43.4784%,65.2174%{opacity:1}65.2175%,100%{opacity:0}}#dg-detect-to-pose-pipeline .fr2{animation-name:dg-detect-to-pose-pipeline-f2}@keyframes dg-detect-to-pose-pipeline-f3{0%,65.2174%{opacity:0}65.2175%,100.0000%{opacity:1}}#dg-detect-to-pose-pipeline .fr3{animation-name:dg-detect-to-pose-pipeline-f3}@media(prefers-reduced-motion:reduce){#dg-detect-to-pose-pipeline *{animation:none!important}#dg-detect-to-pose-pipeline .fr{opacity:0}#dg-detect-to-pose-pipeline .fr3{opacity:1}}</style>
<text x="24" y="40" fill="var(--dg-ink)" font-size="17" font-family="'Onest Variable', ui-sans-serif, system-ui, sans-serif" font-weight="600">What a marker detector actually does, stage by stage</text><text x="24" y="62" fill="var(--dg-muted)" font-size="13" font-family="'Onest Variable', ui-sans-serif, system-ui, sans-serif">Each panel is computed from the one before it, not drawn to look like it</text>
<rect x="24" y="80" width="172.5" height="158" rx="10" fill="var(--dg-surface)" stroke="var(--dg-hairline)" stroke-width="1" vector-effect="non-scaling-stroke" />
<rect x="32" y="100.31" width="156.5" height="117.38" fill="var(--dg-paper)" stroke="var(--dg-hairline)" stroke-width="1" vector-effect="non-scaling-stroke" /><polygon points="61.68,128.84 60.12,132.83 53.59,136.54 48.43,133.64 43.2,129.74 44.26,122.08 50.25,118.9 56.93,117.6 62.25,122.2" fill="var(--dg-ink)" stroke="none" stroke-width="1.5" stroke-linejoin="round" vector-effect="non-scaling-stroke" /><polygon points="175.6,134.56 172.81,139.95 167.59,142.1 161.15,139.69 160.53,133.27 162.64,127.55 170.13,126.89 174.24,130.77" fill="var(--dg-ink)" stroke="none" stroke-width="1.5" stroke-linejoin="round" vector-effect="non-scaling-stroke" /><polygon points="70.29,198.35 68.78,202.03 65.3,203.46 61.68,203.32 57.79,200.2 57.3,196.14 59.3,191.76 63.23,190.28 66.87,190.05 70.56,194.81" fill="var(--dg-ink)" stroke="none" stroke-width="1.5" stroke-linejoin="round" vector-effect="non-scaling-stroke" /><polygon points="167.22,197.18 164.27,201.65 159.56,202.75 154.54,198.8 155.42,193.25 160.11,189.5 165.21,191.05" fill="var(--dg-ink)" stroke="none" stroke-width="1.5" stroke-linejoin="round" vector-effect="non-scaling-stroke" /><polygon points="93.13,189.46 153.97,168.19 122.27,137.61 71.49,150.85" fill="var(--dg-ink)" stroke="none" stroke-width="1.5" stroke-linejoin="round" vector-effect="non-scaling-stroke" /><polygon points="98.06,180.7 106.07,178.01 102.51,172.77 94.7,175.29" fill="var(--dg-paper)" stroke="var(--dg-paper)" stroke-width="0.5" stroke-linejoin="round" vector-effect="non-scaling-stroke" /><polygon points="106.07,178.01 113.83,175.41 110.08,170.33 102.51,172.77" fill="var(--dg-paper)" stroke="var(--dg-paper)" stroke-width="0.5" stroke-linejoin="round" vector-effect="non-scaling-stroke" /><polygon points="113.83,175.41 121.34,172.89 117.41,167.97 110.08,170.33" fill="var(--dg-paper)" stroke="var(--dg-paper)" stroke-width="0.5" stroke-linejoin="round" vector-effect="non-scaling-stroke" /><polygon points="128.62,170.45 135.68,168.08 131.43,163.45 124.53,165.68" fill="var(--dg-paper)" stroke="var(--dg-paper)" stroke-width="0.5" stroke-linejoin="round" vector-effect="non-scaling-stroke" /><polygon points="94.7,175.29 102.51,172.77 99.17,167.86 91.56,170.22" fill="var(--dg-paper)" stroke="var(--dg-paper)" stroke-width="0.5" stroke-linejoin="round" vector-effect="non-scaling-stroke" /><polygon points="110.08,170.33 117.41,167.97 113.72,163.35 106.56,165.57" fill="var(--dg-paper)" stroke="var(--dg-paper)" stroke-width="0.5" stroke-linejoin="round" vector-effect="non-scaling-stroke" /><polygon points="117.41,167.97 124.53,165.68 120.68,161.19 113.72,163.35" fill="var(--dg-paper)" stroke="var(--dg-paper)" stroke-width="0.5" stroke-linejoin="round" vector-effect="non-scaling-stroke" /><polygon points="124.53,165.68 131.43,163.45 127.44,159.1 120.68,161.19" fill="var(--dg-paper)" stroke="var(--dg-paper)" stroke-width="0.5" stroke-linejoin="round" vector-effect="non-scaling-stroke" /><polygon points="99.17,167.86 106.56,165.57 103.25,161.09 96.04,163.25" fill="var(--dg-paper)" stroke="var(--dg-paper)" stroke-width="0.5" stroke-linejoin="round" vector-effect="non-scaling-stroke" /><polygon points="106.56,165.57 113.72,163.35 110.25,159 103.25,161.09" fill="var(--dg-paper)" stroke="var(--dg-paper)" stroke-width="0.5" stroke-linejoin="round" vector-effect="non-scaling-stroke" /><polygon points="120.68,161.19 127.44,159.1 123.67,154.99 117.05,156.97" fill="var(--dg-paper)" stroke="var(--dg-paper)" stroke-width="0.5" stroke-linejoin="round" vector-effect="non-scaling-stroke" /><polygon points="127.44,159.1 134,157.06 130.1,153.07 123.67,154.99" fill="var(--dg-paper)" stroke="var(--dg-paper)" stroke-width="0.5" stroke-linejoin="round" vector-effect="non-scaling-stroke" /><polygon points="96.04,163.25 103.25,161.09 100.13,156.87 93.09,158.9" fill="var(--dg-paper)" stroke="var(--dg-paper)" stroke-width="0.5" stroke-linejoin="round" vector-effect="non-scaling-stroke" /><polygon points="103.25,161.09 110.25,159 106.98,154.9 100.13,156.87" fill="var(--dg-paper)" stroke="var(--dg-paper)" stroke-width="0.5" stroke-linejoin="round" vector-effect="non-scaling-stroke" /><polygon points="110.25,159 117.05,156.97 113.63,152.98 106.98,154.9" fill="var(--dg-paper)" stroke="var(--dg-paper)" stroke-width="0.5" stroke-linejoin="round" vector-effect="non-scaling-stroke" /><polygon points="117.05,156.97 123.67,154.99 120.11,151.11 113.63,152.98" fill="var(--dg-paper)" stroke="var(--dg-paper)" stroke-width="0.5" stroke-linejoin="round" vector-effect="non-scaling-stroke" /><polygon points="100.13,156.87 106.98,154.9 103.88,151.03 97.19,152.89" fill="var(--dg-paper)" stroke="var(--dg-paper)" stroke-width="0.5" stroke-linejoin="round" vector-effect="non-scaling-stroke" /><polygon points="106.98,154.9 113.63,152.98 110.4,149.21 103.88,151.03" fill="var(--dg-paper)" stroke="var(--dg-paper)" stroke-width="0.5" stroke-linejoin="round" vector-effect="non-scaling-stroke" /><polygon points="83.23,156.78 90.3,154.81 87.68,150.94 80.76,152.8" fill="var(--dg-paper)" stroke="var(--dg-paper)" stroke-width="0.5" stroke-linejoin="round" vector-effect="non-scaling-stroke" /><polygon points="90.3,154.81 97.19,152.89 94.41,149.13 87.68,150.94" fill="var(--dg-paper)" stroke="var(--dg-paper)" stroke-width="0.5" stroke-linejoin="round" vector-effect="non-scaling-stroke" /><polygon points="97.19,152.89 103.88,151.03 100.96,147.36 94.41,149.13" fill="var(--dg-paper)" stroke="var(--dg-paper)" stroke-width="0.5" stroke-linejoin="round" vector-effect="non-scaling-stroke" /><polygon points="103.88,151.03 110.4,149.21 107.34,145.64 100.96,147.36" fill="var(--dg-paper)" stroke="var(--dg-paper)" stroke-width="0.5" stroke-linejoin="round" vector-effect="non-scaling-stroke" /><polygon points="116.74,147.44 122.92,145.72 119.61,142.34 113.56,143.97" fill="var(--dg-paper)" stroke="var(--dg-paper)" stroke-width="0.5" stroke-linejoin="round" vector-effect="non-scaling-stroke" />
<rect x="210.5" y="80" width="172.5" height="158" rx="10" fill="var(--dg-surface)" stroke="var(--dg-hairline)" stroke-width="1" vector-effect="non-scaling-stroke" />
<rect x="218.5" y="100.31" width="156.5" height="117.38" fill="var(--dg-paper)" stroke="var(--dg-hairline)" stroke-width="1" vector-effect="non-scaling-stroke" /><polygon points="248.18,128.84 246.62,132.83 240.09,136.54 234.93,133.64 229.7,129.74 230.76,122.08 236.75,118.9 243.43,117.6 248.75,122.2" fill="none" stroke="var(--dg-faint)" stroke-width="1.2" stroke-dasharray="3 2" stroke-linejoin="round" vector-effect="non-scaling-stroke" /><polygon points="362.1,134.56 359.31,139.95 354.09,142.1 347.65,139.69 347.03,133.27 349.14,127.55 356.63,126.89 360.74,130.77" fill="none" stroke="var(--dg-faint)" stroke-width="1.2" stroke-dasharray="3 2" stroke-linejoin="round" vector-effect="non-scaling-stroke" /><polygon points="256.79,198.35 255.28,202.03 251.8,203.46 248.18,203.32 244.29,200.2 243.8,196.14 245.8,191.76 249.73,190.28 253.37,190.05 257.06,194.81" fill="none" stroke="var(--dg-faint)" stroke-width="1.2" stroke-dasharray="3 2" stroke-linejoin="round" vector-effect="non-scaling-stroke" /><polygon points="353.72,197.18 350.77,201.65 346.06,202.75 341.04,198.8 341.92,193.25 346.61,189.5 351.71,191.05" fill="none" stroke="var(--dg-faint)" stroke-width="1.2" stroke-dasharray="3 2" stroke-linejoin="round" vector-effect="non-scaling-stroke" /><polygon points="279.63,189.46 340.47,168.19 308.77,137.61 257.99,150.85" fill="var(--dg-accent-soft)" stroke="var(--dg-accent)" stroke-width="2" stroke-linejoin="round" vector-effect="non-scaling-stroke" />
<circle cx="279.63" cy="189.46" r="3.6" fill="var(--dg-accent)" />
<text x="285.63" y="187.75" fill="var(--dg-accent)" font-size="9" font-family="'JetBrains Mono Variable', ui-monospace, monospace">1</text>
<circle cx="340.47" cy="168.19" r="3.6" fill="var(--dg-accent)" />
<text x="346.47" y="166.48" fill="var(--dg-accent)" font-size="9" font-family="'JetBrains Mono Variable', ui-monospace, monospace">2</text>
<circle cx="308.77" cy="137.61" r="3.6" fill="var(--dg-accent)" />
<text x="314.77" y="135.89" fill="var(--dg-accent)" font-size="9" font-family="'JetBrains Mono Variable', ui-monospace, monospace">3</text>
<circle cx="257.99" cy="150.85" r="3.6" fill="var(--dg-accent)" />
<text x="263.99" y="149.14" fill="var(--dg-accent)" font-size="9" font-family="'JetBrains Mono Variable', ui-monospace, monospace">4</text>
<rect x="397" y="80" width="172.5" height="158" rx="10" fill="var(--dg-surface)" stroke="var(--dg-hairline)" stroke-width="1" vector-effect="non-scaling-stroke" />
<rect x="428.08" y="96.83" width="110.33" height="110.33" fill="var(--dg-ink)" stroke="var(--dg-accent2)" stroke-width="1.6" vector-effect="non-scaling-stroke" /><rect x="441.88" y="110.63" width="13.79" height="13.79" fill="var(--dg-paper)" stroke="none" stroke-width="1.5" vector-effect="non-scaling-stroke" /><rect x="455.67" y="110.63" width="13.79" height="13.79" fill="var(--dg-paper)" stroke="none" stroke-width="1.5" vector-effect="non-scaling-stroke" /><rect x="469.46" y="110.63" width="13.79" height="13.79" fill="var(--dg-paper)" stroke="none" stroke-width="1.5" vector-effect="non-scaling-stroke" /><rect x="497.04" y="110.63" width="13.79" height="13.79" fill="var(--dg-paper)" stroke="none" stroke-width="1.5" vector-effect="non-scaling-stroke" /><rect x="441.88" y="124.42" width="13.79" height="13.79" fill="var(--dg-paper)" stroke="none" stroke-width="1.5" vector-effect="non-scaling-stroke" /><rect x="469.46" y="124.42" width="13.79" height="13.79" fill="var(--dg-paper)" stroke="none" stroke-width="1.5" vector-effect="non-scaling-stroke" /><rect x="483.25" y="124.42" width="13.79" height="13.79" fill="var(--dg-paper)" stroke="none" stroke-width="1.5" vector-effect="non-scaling-stroke" /><rect x="497.04" y="124.42" width="13.79" height="13.79" fill="var(--dg-paper)" stroke="none" stroke-width="1.5" vector-effect="non-scaling-stroke" /><rect x="455.67" y="138.21" width="13.79" height="13.79" fill="var(--dg-paper)" stroke="none" stroke-width="1.5" vector-effect="non-scaling-stroke" /><rect x="469.46" y="138.21" width="13.79" height="13.79" fill="var(--dg-paper)" stroke="none" stroke-width="1.5" vector-effect="non-scaling-stroke" /><rect x="497.04" y="138.21" width="13.79" height="13.79" fill="var(--dg-paper)" stroke="none" stroke-width="1.5" vector-effect="non-scaling-stroke" /><rect x="510.83" y="138.21" width="13.79" height="13.79" fill="var(--dg-paper)" stroke="none" stroke-width="1.5" vector-effect="non-scaling-stroke" /><rect x="455.67" y="152" width="13.79" height="13.79" fill="var(--dg-paper)" stroke="none" stroke-width="1.5" vector-effect="non-scaling-stroke" /><rect x="469.46" y="152" width="13.79" height="13.79" fill="var(--dg-paper)" stroke="none" stroke-width="1.5" vector-effect="non-scaling-stroke" /><rect x="483.25" y="152" width="13.79" height="13.79" fill="var(--dg-paper)" stroke="none" stroke-width="1.5" vector-effect="non-scaling-stroke" /><rect x="497.04" y="152" width="13.79" height="13.79" fill="var(--dg-paper)" stroke="none" stroke-width="1.5" vector-effect="non-scaling-stroke" /><rect x="469.46" y="165.79" width="13.79" height="13.79" fill="var(--dg-paper)" stroke="none" stroke-width="1.5" vector-effect="non-scaling-stroke" /><rect x="483.25" y="165.79" width="13.79" height="13.79" fill="var(--dg-paper)" stroke="none" stroke-width="1.5" vector-effect="non-scaling-stroke" /><rect x="441.88" y="179.58" width="13.79" height="13.79" fill="var(--dg-paper)" stroke="none" stroke-width="1.5" vector-effect="non-scaling-stroke" /><rect x="455.67" y="179.58" width="13.79" height="13.79" fill="var(--dg-paper)" stroke="none" stroke-width="1.5" vector-effect="non-scaling-stroke" /><rect x="469.46" y="179.58" width="13.79" height="13.79" fill="var(--dg-paper)" stroke="none" stroke-width="1.5" vector-effect="non-scaling-stroke" /><rect x="483.25" y="179.58" width="13.79" height="13.79" fill="var(--dg-paper)" stroke="none" stroke-width="1.5" vector-effect="non-scaling-stroke" /><rect x="510.83" y="179.58" width="13.79" height="13.79" fill="var(--dg-paper)" stroke="none" stroke-width="1.5" vector-effect="non-scaling-stroke" />
<line x1="441.88" y1="96.83" x2="441.88" y2="207.17" stroke="var(--dg-accent2)" stroke-width="0.5" stroke-linecap="round" opacity="0.5" vector-effect="non-scaling-stroke" /><line x1="428.08" y1="110.63" x2="538.42" y2="110.63" stroke="var(--dg-accent2)" stroke-width="0.5" stroke-linecap="round" opacity="0.5" vector-effect="non-scaling-stroke" />
<line x1="455.67" y1="96.83" x2="455.67" y2="207.17" stroke="var(--dg-accent2)" stroke-width="0.5" stroke-linecap="round" opacity="0.5" vector-effect="non-scaling-stroke" /><line x1="428.08" y1="124.42" x2="538.42" y2="124.42" stroke="var(--dg-accent2)" stroke-width="0.5" stroke-linecap="round" opacity="0.5" vector-effect="non-scaling-stroke" />
<line x1="469.46" y1="96.83" x2="469.46" y2="207.17" stroke="var(--dg-accent2)" stroke-width="0.5" stroke-linecap="round" opacity="0.5" vector-effect="non-scaling-stroke" /><line x1="428.08" y1="138.21" x2="538.42" y2="138.21" stroke="var(--dg-accent2)" stroke-width="0.5" stroke-linecap="round" opacity="0.5" vector-effect="non-scaling-stroke" />
<line x1="483.25" y1="96.83" x2="483.25" y2="207.17" stroke="var(--dg-accent2)" stroke-width="0.5" stroke-linecap="round" opacity="0.5" vector-effect="non-scaling-stroke" /><line x1="428.08" y1="152" x2="538.42" y2="152" stroke="var(--dg-accent2)" stroke-width="0.5" stroke-linecap="round" opacity="0.5" vector-effect="non-scaling-stroke" />
<line x1="497.04" y1="96.83" x2="497.04" y2="207.17" stroke="var(--dg-accent2)" stroke-width="0.5" stroke-linecap="round" opacity="0.5" vector-effect="non-scaling-stroke" /><line x1="428.08" y1="165.79" x2="538.42" y2="165.79" stroke="var(--dg-accent2)" stroke-width="0.5" stroke-linecap="round" opacity="0.5" vector-effect="non-scaling-stroke" />
<line x1="510.83" y1="96.83" x2="510.83" y2="207.17" stroke="var(--dg-accent2)" stroke-width="0.5" stroke-linecap="round" opacity="0.5" vector-effect="non-scaling-stroke" /><line x1="428.08" y1="179.58" x2="538.42" y2="179.58" stroke="var(--dg-accent2)" stroke-width="0.5" stroke-linecap="round" opacity="0.5" vector-effect="non-scaling-stroke" />
<line x1="524.62" y1="96.83" x2="524.62" y2="207.17" stroke="var(--dg-accent2)" stroke-width="0.5" stroke-linecap="round" opacity="0.5" vector-effect="non-scaling-stroke" /><line x1="428.08" y1="193.37" x2="538.42" y2="193.37" stroke="var(--dg-accent2)" stroke-width="0.5" stroke-linecap="round" opacity="0.5" vector-effect="non-scaling-stroke" />
<text x="483.25" y="222.17" fill="var(--dg-accent2)" font-size="9.5" font-family="'JetBrains Mono Variable', ui-monospace, monospace" text-anchor="middle">6x6 bits read</text>
<rect x="583.5" y="80" width="172.5" height="158" rx="10" fill="var(--dg-surface)" stroke="var(--dg-hairline)" stroke-width="1" vector-effect="non-scaling-stroke" />
<rect x="591.5" y="100.31" width="156.5" height="117.38" fill="var(--dg-paper)" stroke="var(--dg-hairline)" stroke-width="1" vector-effect="non-scaling-stroke" /><polygon points="652.63,189.46 713.47,168.19 681.77,137.61 630.99,150.85" fill="var(--dg-surface-strong)" stroke="var(--dg-faint)" stroke-width="1.2" stroke-linejoin="round" vector-effect="non-scaling-stroke" />
<line x1="652.63" y1="189.46" x2="649.96" y2="156.75" stroke="var(--dg-accent)" stroke-width="1.4" stroke-linecap="round" vector-effect="non-scaling-stroke" />
<line x1="713.47" y1="168.19" x2="719.34" y2="137.16" stroke="var(--dg-accent)" stroke-width="1.4" stroke-linecap="round" vector-effect="non-scaling-stroke" />
<line x1="681.77" y1="137.61" x2="683.03" y2="110.24" stroke="var(--dg-accent)" stroke-width="1.4" stroke-linecap="round" vector-effect="non-scaling-stroke" />
<line x1="630.99" y1="150.85" x2="626.45" y2="121.72" stroke="var(--dg-accent)" stroke-width="1.4" stroke-linecap="round" vector-effect="non-scaling-stroke" />
<polygon points="649.96,156.75 719.34,137.16 683.03,110.24 626.45,121.72" fill="var(--dg-accent-soft)" stroke="var(--dg-accent)" stroke-width="1.8" stroke-linejoin="round" vector-effect="non-scaling-stroke" />
<text x="669.75" y="228" fill="var(--dg-accent2)" font-size="9.5" font-family="'JetBrains Mono Variable', ui-monospace, monospace" text-anchor="middle">pose recovered to 6e-12 mm</text>
<line x1="197.5" y1="159" x2="201.85" y2="159" stroke="var(--dg-faint)" stroke-width="1.4" stroke-linecap="round" vector-effect="non-scaling-stroke" /><polygon points="209.5,159 200.5,156.03 200.5,161.97" fill="var(--dg-faint)" stroke="none" stroke-width="0" stroke-linejoin="round" vector-effect="non-scaling-stroke" />
<line x1="384" y1="159" x2="388.35" y2="159" stroke="var(--dg-faint)" stroke-width="1.4" stroke-linecap="round" vector-effect="non-scaling-stroke" /><polygon points="396,159 387,156.03 387,161.97" fill="var(--dg-faint)" stroke="none" stroke-width="0" stroke-linejoin="round" vector-effect="non-scaling-stroke" />
<line x1="570.5" y1="159" x2="574.85" y2="159" stroke="var(--dg-faint)" stroke-width="1.4" stroke-linecap="round" vector-effect="non-scaling-stroke" /><polygon points="582.5,159 573.5,156.03 573.5,161.97" fill="var(--dg-faint)" stroke="none" stroke-width="0" stroke-linejoin="round" vector-effect="non-scaling-stroke" />
<text x="26" y="251" fill="var(--dg-ink)" font-size="12" font-family="'Onest Variable', ui-sans-serif, system-ui, sans-serif" font-weight="600">1.  threshold</text><text x="26" y="267" fill="var(--dg-muted)" font-size="9.5" font-family="'Onest Variable', ui-sans-serif, system-ui, sans-serif">one image, marker and clutter alike</text><text x="212.5" y="251" fill="var(--dg-ink)" font-size="12" font-family="'Onest Variable', ui-sans-serif, system-ui, sans-serif" font-weight="600">2.  find quads</text><text x="212.5" y="267" fill="var(--dg-muted)" font-size="9.5" font-family="'Onest Variable', ui-sans-serif, system-ui, sans-serif">four-sided and convex, or rejected</text><text x="399" y="251" fill="var(--dg-ink)" font-size="12" font-family="'Onest Variable', ui-sans-serif, system-ui, sans-serif" font-weight="600">3.  rectify</text><text x="399" y="267" fill="var(--dg-muted)" font-size="9.5" font-family="'Onest Variable', ui-sans-serif, system-ui, sans-serif">a homography, then read the bits</text><text x="585.5" y="251" fill="var(--dg-ink)" font-size="12" font-family="'Onest Variable', ui-sans-serif, system-ui, sans-serif" font-weight="600">4.  solve pose</text><text x="585.5" y="267" fill="var(--dg-muted)" font-size="9.5" font-family="'Onest Variable', ui-sans-serif, system-ui, sans-serif">P3P on three; the fourth breaks the tie</text>
<g class="fr fr0"><rect x="24" y="80" width="172.5" height="158" rx="10" fill="none" stroke="var(--dg-accent2)" stroke-width="2" vector-effect="non-scaling-stroke" /><text x="26" y="251" fill="var(--dg-accent2)" font-size="12" font-family="'Onest Variable', ui-sans-serif, system-ui, sans-serif" font-weight="600">1.  threshold</text><text x="26" y="267" fill="var(--dg-accent2)" font-size="9.5" font-family="'Onest Variable', ui-sans-serif, system-ui, sans-serif">one image, marker and clutter alike</text></g>
<g class="fr fr1"><rect x="210.5" y="80" width="172.5" height="158" rx="10" fill="none" stroke="var(--dg-accent2)" stroke-width="2" vector-effect="non-scaling-stroke" /><text x="212.5" y="251" fill="var(--dg-accent2)" font-size="12" font-family="'Onest Variable', ui-sans-serif, system-ui, sans-serif" font-weight="600">2.  find quads</text><text x="212.5" y="267" fill="var(--dg-accent2)" font-size="9.5" font-family="'Onest Variable', ui-sans-serif, system-ui, sans-serif">four-sided and convex, or rejected</text></g>
<g class="fr fr2"><rect x="397" y="80" width="172.5" height="158" rx="10" fill="none" stroke="var(--dg-accent2)" stroke-width="2" vector-effect="non-scaling-stroke" /><text x="399" y="251" fill="var(--dg-accent2)" font-size="12" font-family="'Onest Variable', ui-sans-serif, system-ui, sans-serif" font-weight="600">3.  rectify</text><text x="399" y="267" fill="var(--dg-accent2)" font-size="9.5" font-family="'Onest Variable', ui-sans-serif, system-ui, sans-serif">a homography, then read the bits</text></g>
<g class="fr fr3"><rect x="583.5" y="80" width="172.5" height="158" rx="10" fill="none" stroke="var(--dg-accent2)" stroke-width="2" vector-effect="non-scaling-stroke" /><text x="585.5" y="251" fill="var(--dg-accent2)" font-size="12" font-family="'Onest Variable', ui-sans-serif, system-ui, sans-serif" font-weight="600">4.  solve pose</text><text x="585.5" y="267" fill="var(--dg-accent2)" font-size="9.5" font-family="'Onest Variable', ui-sans-serif, system-ui, sans-serif">P3P on three; the fourth breaks the tie</text></g>
<text x="24" y="294" fill="var(--dg-muted)" font-size="11" font-family="'Onest Variable', ui-sans-serif, system-ui, sans-serif">Every stage consumes the one before it: the pose at stage 4 is recovered from the corners found at stage 2, and lands 6e-12 mm from the</text><text x="24" y="309.95" fill="var(--dg-muted)" font-size="11" font-family="'Onest Variable', ui-sans-serif, system-ui, sans-serif">pose the image was made with.</text>
</svg>