<?xml version="1.0" encoding="UTF-8" standalone="no"?>
<!-- Created with Inkscape (http://www.inkscape.org/) -->

<svg
   width="9.6252441mm"
   height="9.3726358mm"
   viewBox="0 0 9.6252439 9.372636"
   version="1.1"
   id="svg1"
   xml:space="preserve"
   xmlns:inkscape="http://www.inkscape.org/namespaces/inkscape"
   xmlns:sodipodi="http://sodipodi.sourceforge.net/DTD/sodipodi-0.dtd"
   xmlns="http://www.w3.org/2000/svg"
   xmlns:svg="http://www.w3.org/2000/svg"><sodipodi:namedview
     id="namedview1"
     pagecolor="#505050"
     bordercolor="#ffffff"
     borderopacity="1"
     inkscape:showpageshadow="0"
     inkscape:pageopacity="0"
     inkscape:pagecheckerboard="1"
     inkscape:deskcolor="#505050"
     inkscape:document-units="mm"><inkscape:page
       x="3.4316752e-06"
       y="-8.3672576e-06"
       width="9.6252441"
       height="9.3726358"
       id="page4"
       margin="0"
       bleed="0" /></sodipodi:namedview><defs
     id="defs1" /><g
     id="g1"
     inkscape:groupmode="layer"
     inkscape:label="1"
     transform="matrix(0.26458333,0,0,0.26458333,136.92085,140.22924)"><path
       id="path25-6"
       style="color:#000000;fill:#ffffff;-inkscape-stroke:none"
       d="m -495.209,-530.00001 c -0.45448,0.005 -0.91651,0.0705 -1.37304,0.17969 -1.21742,0.29118 -2.44127,0.92464 -3.5,1.87891 -0.26683,0.24079 -0.53806,0.52281 -0.8086,0.82422 -0.0541,-0.74748 -0.25514,-1.49543 -0.98437,-2.08008 -0.35753,-0.28694 -0.78023,-0.46579 -1.21094,-0.55274 -0.4307,-0.087 -0.86973,-0.0822 -1.26172,0.004 -0.78397,0.17205 -1.44374,0.56462 -2.07031,1.02734 -1.25315,0.92544 -2.38888,2.20345 -3.33008,3.2461 l 1.9082,1.72265 c 0.9388,-1.04001 2.03036,-2.21987 2.94922,-2.89843 0.45942,-0.33928 0.87117,-0.53667 1.0957,-0.58594 0.22453,-0.0493 0.19495,-0.0498 0.31055,0.043 -0.19036,-0.15262 0.0435,0.10665 0.043,0.75781 -5.5e-4,0.65115 -0.12897,1.54787 -0.31055,2.41797 -0.36316,1.74019 -0.91601,3.36914 -0.91601,3.36914 h 0.002 c -0.005,0.0179 -0.0124,0.0369 -0.0176,0.0547 l -0.002,0.002 v 0.002 c -1.09102,3.77288 -7.7168,25.25391 -7.7168,25.25391 l 2.45703,0.75781 c 0,0 6.54947,-21.22433 7.71289,-25.24023 0,0 0.034,-0.10531 0.0547,-0.16797 0.48819,-1.474 2.72403,-5.05934 3.81836,-6.04688 0.73859,-0.66572 1.61208,-1.10463 2.375,-1.28711 0.76291,-0.18248 1.37438,-0.0804 1.63477,0.0723 l 0.002,0.002 c 0.69644,0.40666 1.23805,0.67676 1.49805,1.97461 0.26,1.29785 0.0433,3.82445 -1.79492,8.27149 l 0.0176,0.008 c -0.0183,0.0401 -0.13138,0.31357 -0.29297,0.70117 -0.17871,0.42868 -0.40059,0.98089 -0.61328,1.59766 -0.42539,1.23355 -0.84636,2.70425 -0.71289,4.18554 v 0.002 c 0.13424,1.464 0.93836,2.92376 2.44532,3.44922 1.50695,0.52546 3.30165,-0.0985 4.96093,-1.73438 l -1.80468,-1.83203 c -1.2674,1.24949 -1.9849,1.25154 -2.3086,1.13867 -0.32371,-0.11287 -0.66799,-0.55514 -0.73242,-1.25781 -0.0683,-0.76831 0.20954,-2.03313 0.58203,-3.11328 0.18647,-0.54072 0.38806,-1.04096 0.55664,-1.44531 0.16857,-0.40436 0.28447,-0.63933 0.38867,-0.95118 l -0.0156,-0.006 c 1.85014,-4.54303 2.26276,-7.43765 1.8457,-9.51953 -0.42451,-2.11899 -1.89163,-3.20517 -2.7207,-3.68945 h -0.002 c -0.53135,-0.31105 -1.10969,-0.47235 -1.70704,-0.51953 -0.14949,-0.0118 -0.29967,-0.0174 -0.45117,-0.0156 z" /><path
       style="color:#000000;fill:#ffffff;-inkscape-stroke:none"
       d="m -511.33789,-524.02734 -6.1582,6.84765 6.17773,6.88086 1.91211,-1.71875 -4.63281,-5.16015 4.61328,-5.13086 z"
       id="path31-5" /><path
       style="color:#000000;fill:#ffffff;-inkscape-stroke:none"
       d="m -487.27539,-524.04883 -1.91211,1.72071 4.61328,5.1289 -4.63476,5.16016 1.91211,1.71875 6.17968,-6.87891 z"
       id="path33-0" /></g></svg>
